<svg width="141" height="62" viewBox="0 0 141 62" fill="none" xmlns="http://www.w3.org/2000/svg">
<path d="M87.7691 54.3261C88.159 54.1656 88.5017 53.9354 88.7973 53.6354C89.0929 53.3354 89.3444 52.9935 89.552 52.6098C89.684 52.3656 89.7972 52.1039 89.8916 51.8249C89.9859 51.5458 90.0551 51.2562 90.0991 50.9562C90.1494 50.6492 90.1746 50.3353 90.1746 50.0143C90.1746 49.2887 90.0142 48.7306 89.6935 48.3399C89.3727 47.9492 88.9168 47.7538 88.3256 47.7538C87.8414 47.7538 87.4263 47.8654 87.0804 48.0887C86.7408 48.305 86.4861 48.598 86.3163 48.9678L85.2881 47.4503H85.873C86.0428 46.6689 86.4075 46.0654 86.9672 45.6398C87.5269 45.2142 88.2565 45.0014 89.1558 45.0014C90.489 45.0014 91.4984 45.3956 92.1839 46.184C92.8694 46.9724 93.2121 48.1341 93.2121 49.669C93.2121 50.1225 93.1775 50.5585 93.1083 50.9772C93.0455 51.3958 92.948 51.7935 92.8159 52.1702C92.6901 52.54 92.5329 52.8958 92.3442 53.2377C92.099 53.6703 91.7908 54.068 91.4198 54.4308C91.055 54.7866 90.6337 55.0971 90.1557 55.3622L89.118 55.8855C88.6464 56.4645 87.9955 56.9285 87.1653 57.2774C86.3352 57.6262 85.3604 57.8006 84.241 57.8006C81.8889 57.8006 80.1123 57.1867 78.9111 55.9587C77.71 54.7238 77.1094 52.9098 77.1094 50.5167V50.3492C77.1094 48.605 77.515 47.2759 78.3263 46.3619C79.1375 45.4409 80.3324 44.9805 81.911 44.9805C83.0492 44.9805 83.9423 45.2177 84.59 45.6921C85.2378 46.1596 85.6843 46.9201 85.9296 47.9736L86.2031 48.2771C86.2472 48.4445 86.2849 48.619 86.3163 48.8004C86.3478 48.9748 86.3761 49.1597 86.4012 49.355L86.5616 50.4539C86.7 51.3888 86.9232 52.1912 87.2314 52.8609C87.5458 53.5238 88.0426 54.0121 88.7218 54.3261L89.5048 54.6924C89.8004 54.804 90.118 54.9017 90.4576 54.9854C90.7972 55.0692 91.1808 55.111 91.6084 55.111C93.0423 55.111 94.1146 54.7238 94.8252 53.9494C95.5359 53.1679 95.8912 52.0167 95.8912 50.4958V50.3178C95.8912 49.4527 95.7717 48.6294 95.5327 47.848C95.2937 47.0596 94.9227 46.2712 94.4196 45.4828H97.4288C97.9068 46.0898 98.281 46.8224 98.5514 47.6805C98.8218 48.5317 98.957 49.4597 98.957 50.4644V50.6213C98.957 52.9935 98.3784 54.7901 97.2213 56.011C96.0641 57.225 94.3473 57.832 92.0707 57.832C90.9638 57.832 90.0079 57.6541 89.2029 57.2983C88.398 56.9355 87.7659 56.4645 87.3068 55.8855L86.3635 55.3517C85.4265 54.8843 84.7504 54.2145 84.3353 53.3424C83.9203 52.4702 83.6278 51.4342 83.458 50.2341L83.3731 49.5957C83.2851 48.9678 83.131 48.5003 82.9109 48.1934C82.6971 47.8794 82.3449 47.7224 81.8544 47.7224C81.2884 47.7224 80.8639 47.9352 80.5808 48.3608C80.3041 48.7864 80.1658 49.4248 80.1658 50.276V50.4434C80.1658 51.9853 80.5242 53.1505 81.2412 53.9389C81.9581 54.7203 83.0272 55.111 84.4485 55.111C84.9579 55.111 85.4139 55.0692 85.8164 54.9854C86.2188 54.9017 86.5962 54.804 86.9484 54.6924L87.7691 54.3261Z" fill="white"/>
<path d="M74.5391 56.5469H71.0518V46.871C71.0518 45.6851 70.7738 44.8532 70.2179 44.3751C69.662 43.8909 68.7703 43.6487 67.5429 43.6487C66.8209 43.6487 66.0556 43.7388 65.247 43.9188C64.4311 44.0927 63.673 44.3006 62.9727 44.5428L63.5358 42.019C64.1784 41.7645 64.9184 41.5534 65.756 41.3858C66.5863 41.2119 67.4563 41.125 68.366 41.125C70.4814 41.125 72.0373 41.6062 73.0337 42.5685C74.0373 43.5308 74.5391 44.9525 74.5391 46.8337V56.5469Z" fill="white"/>
<path d="M50.8797 54.1165H58.4955V56.5469H50.8503L50.8797 54.1165ZM47.8177 48.9531C49.6104 48.9531 50.9648 49.2914 51.8808 49.9682C52.7967 50.6449 53.2547 51.6698 53.2547 53.0428V53.1502C53.2547 53.7293 53.0814 54.3279 52.7346 54.9461C52.3878 55.5643 51.8742 56.0979 51.1938 56.5469H49.28V56.3809C49.5287 55.997 49.7249 55.6033 49.8689 55.1999C50.0128 54.7965 50.0848 54.38 50.0848 53.9505V53.8432C50.0848 53.0883 49.9016 52.5255 49.5352 52.1546C49.1688 51.7837 48.5963 51.5982 47.8177 51.5982C47.0391 51.5982 46.4634 51.7837 46.0904 52.1546C45.7241 52.5255 45.5409 53.0883 45.5409 53.8432V53.9505C45.5409 54.4321 45.6128 54.8876 45.7568 55.317C45.9072 55.7465 46.1035 56.1564 46.3456 56.5469H43.1757C42.9336 56.215 42.7438 55.8051 42.6064 55.317C42.4756 54.8225 42.4102 54.2987 42.4102 53.7456V53.6284C42.4102 52.0602 42.8681 50.8889 43.7841 50.1146C44.7001 49.3402 46.0446 48.9531 47.8177 48.9531ZM58.3679 54.1165H64.9531V50.3879C64.9531 49.4899 64.7372 48.8197 64.3054 48.3772C63.8736 47.9282 63.2226 47.7037 62.3524 47.7037C61.4888 47.7037 60.8378 47.9282 60.3994 48.3772C59.961 48.8197 59.7419 49.4899 59.7419 50.3879V56.5469H56.5817V50.3879C56.5817 48.5984 57.0659 47.2515 58.0342 46.347C59.0025 45.436 60.4387 44.9805 62.3426 44.9805C64.2465 44.9805 65.6827 45.436 66.651 46.347C67.6258 47.2515 68.1133 48.5984 68.1133 50.3879V56.5469H57.5141L58.3679 54.1165Z" fill="white"/>
<path d="M33.8934 51.2866L33.6796 48.8603C34.9752 48.9218 36.0828 49.2084 37.0027 49.7203C37.9225 50.2253 38.6253 50.9146 39.1111 51.7882C39.5969 52.6617 39.8398 53.6718 39.8398 54.8184V54.9412C39.8398 57.1729 39.1565 58.8552 37.7897 59.9881C36.4294 61.121 34.4116 61.6875 31.7364 61.6875C30.8554 61.6875 30.0198 61.6261 29.2295 61.5032C28.4457 61.3804 27.7008 61.1825 26.9948 60.9095L26.4506 58.2683C27.2798 58.5822 28.0895 58.8006 28.8797 58.9235C29.67 59.0531 30.5348 59.118 31.474 59.118C32.6659 59.118 33.657 58.9542 34.4472 58.6266C35.244 58.299 35.8432 57.811 36.2448 57.1627C36.6464 56.5211 36.8472 55.7227 36.8472 54.7672V54.675C36.8472 54.1018 36.7403 53.5728 36.5266 53.0883C36.3193 52.5969 35.9986 52.1908 35.5646 51.8701C35.1306 51.5493 34.5736 51.3548 33.8934 51.2866ZM27.6846 47.6421C26.2013 47.6421 25.0741 47.9595 24.3033 48.5942C23.5325 49.2221 23.1471 50.1605 23.1471 51.4094V52.4536L21.3107 51.9213L21.1941 48.369H21.6313C21.8969 47.3589 22.5285 46.5433 23.526 45.9223C24.5236 45.2944 25.9389 44.9805 27.7721 44.9805C29.8643 44.9805 31.4967 45.4411 32.6691 46.3625C33.8481 47.277 34.5703 48.5464 34.8359 50.1707L34.8845 50.4676C34.9104 50.7133 34.9298 50.9351 34.9428 51.133C34.9557 51.3309 34.9622 51.5595 34.9622 51.8189V51.9622C34.9622 53.6274 34.5606 54.8969 33.7574 55.7704C32.9606 56.644 31.7266 57.0808 30.0554 57.0808C28.5397 57.0808 27.3769 56.7464 26.5672 56.0775C25.7575 55.4087 25.3527 54.443 25.3527 53.1804V53.0576C25.3527 51.6244 25.8223 50.5529 26.7616 49.8431C27.7073 49.1265 29.0061 48.7682 30.6578 48.7682C30.9817 48.7682 31.3315 48.7955 31.7072 48.8501C32.0894 48.9047 32.3647 48.9559 32.5331 49.0037L32.1639 51.1739C31.9436 51.1535 31.7428 51.1398 31.5615 51.133C31.3866 51.1262 31.1922 51.1228 30.9785 51.1228C30.0846 51.1228 29.4303 51.2831 29.0158 51.6039C28.6077 51.9247 28.4036 52.3717 28.4036 52.945V53.0064C28.4036 53.4705 28.5429 53.8424 28.8214 54.1222C29.1065 54.4021 29.5275 54.542 30.0846 54.542C30.7518 54.542 31.2376 54.344 31.542 53.9482C31.8465 53.5455 31.9987 52.9108 31.9987 52.0441V51.8291C31.9987 51.5698 31.989 51.3377 31.9696 51.133C31.9566 50.9283 31.9372 50.7064 31.9113 50.4676L31.7266 49.2289C31.3898 48.7512 30.8846 48.369 30.2109 48.0823C29.5372 47.7889 28.6951 47.6421 27.6846 47.6421ZM20.0184 56.9989V51.7267L23.1471 51.9417V56.9989H20.0184ZM21.5536 48.369L21.709 52.6071H20.0184V51.4299C20.0184 50.0854 19.6718 49.0753 18.9787 48.3997C18.2921 47.724 17.3172 47.3862 16.0541 47.3862C15.6136 47.3862 15.2023 47.4033 14.8201 47.4374C14.4444 47.4715 14.1076 47.5261 13.8096 47.6012L12.8088 45.7483C13.1456 45.564 13.6023 45.39 14.1788 45.2262C14.7553 45.0624 15.4614 44.9805 16.297 44.9805C17.3723 44.9805 18.2759 45.1306 19.0079 45.4309C19.7463 45.7312 20.3261 46.1373 20.7471 46.6491C21.1682 47.161 21.437 47.7343 21.5536 48.369ZM4.4527 52.0953V52.2693C4.4527 53.1224 4.55958 53.9346 4.77334 54.7058C4.99358 55.4701 5.33042 56.2516 5.78385 57.0501H2.54829C2.15315 56.4495 1.84223 55.7295 1.61551 54.89C1.39528 54.0438 1.28516 53.1702 1.28516 52.2693V52.0953C1.28516 49.7476 1.94587 47.9765 3.2673 46.7822C4.58873 45.581 6.5806 44.9805 9.24289 44.9805C10.3311 44.9805 11.2769 45.0965 12.0801 45.3285C12.8898 45.5606 13.5375 45.8677 14.0234 46.2499L15.1213 47.1917C15.646 47.3009 16.08 47.4647 16.4233 47.6831C16.7666 47.9015 17.0225 48.154 17.1909 48.4406C17.3658 48.7273 17.4533 49.0344 17.4533 49.362V49.4336C17.4533 49.966 17.2557 50.3993 16.8605 50.7337C16.4654 51.0613 15.8727 51.2661 15.0824 51.348V51.4196C16.08 51.5084 16.8022 51.7711 17.2492 52.2079C17.7026 52.6379 17.9294 53.2043 17.9294 53.9073V53.9892C17.9294 55.0811 17.5083 55.9274 16.6662 56.528C15.8306 57.1286 14.574 57.4288 12.8963 57.4288C10.9465 57.4288 9.50199 56.9818 8.56274 56.0878C7.62349 55.1869 7.15386 53.8629 7.15386 52.1158V52.0032C7.15386 51.2115 7.28341 50.4846 7.54252 49.8226C7.80162 49.1606 8.17409 48.5976 8.65991 48.1335C9.1522 47.6626 9.7449 47.3179 10.438 47.0996L12.8963 47.8059C12.3003 47.997 11.8048 48.2871 11.4096 48.6761C11.0145 49.0651 10.7198 49.5189 10.5255 50.0376C10.3376 50.5495 10.2437 51.0955 10.2437 51.6756V51.8189C10.2437 52.8494 10.4639 53.6138 10.9044 54.112C11.3449 54.6034 12.0218 54.8491 12.9351 54.8491C13.5634 54.8491 14.0266 54.7535 14.3246 54.5624C14.629 54.3713 14.7812 54.0915 14.7812 53.723V53.6718C14.7812 53.3715 14.6679 53.1497 14.4412 53.0064C14.2209 52.8562 13.8647 52.7744 13.3724 52.7607L12.187 52.7095V50.2219L13.1295 50.1502C13.5505 50.1161 13.8614 50.024 14.0622 49.8738C14.263 49.7237 14.3634 49.5053 14.3634 49.2186V49.1777C14.3634 48.9457 14.2889 48.7443 14.14 48.5737C13.9974 48.3963 13.7805 48.2495 13.489 48.1335C13.2039 48.0107 12.8477 47.9185 12.4202 47.8571C12.2841 47.8435 12.1384 47.8196 11.9829 47.7854C11.8339 47.7513 11.6752 47.724 11.5068 47.7035C11.2218 47.6626 10.9206 47.6319 10.6032 47.6114C10.2923 47.5841 9.97486 47.5705 9.65098 47.5705C7.77247 47.5705 6.43485 47.9492 5.6381 48.7068C4.84784 49.4643 4.4527 50.5938 4.4527 52.0953Z" fill="white"/>
<path d="M129.801 4.17386C131.146 4.17386 132.173 3.86994 132.881 3.2621C133.589 2.64075 133.943 1.74249 133.943 0.567321V0H140.082V0.749673C140.082 2.5597 139.671 4.07931 138.85 5.30851C138.043 6.5377 136.874 7.46298 135.345 8.08433C133.816 8.69217 131.967 8.99609 129.801 8.99609C127.634 8.99609 125.786 8.69217 124.257 8.08433C122.713 7.46298 121.538 6.5377 120.73 5.30851C119.923 4.07931 119.52 2.5597 119.52 0.749673V0H125.616V0.567321C125.616 1.74249 125.977 2.64075 126.699 3.2621C127.407 3.86994 128.441 4.17386 129.801 4.17386Z" fill="white"/>
<path d="M74.5391 23.5971C74.5391 19.1514 75.5714 15.8242 77.6362 13.6155C79.7149 11.3927 82.7492 10.2812 86.7392 10.2812C89.6828 10.2812 91.922 10.9143 93.4566 12.1805C94.9912 13.4326 95.9259 15.0364 96.2607 16.9919L96.2816 26.2771H92.9753V22.352C92.9753 18.2581 91.1546 16.2111 87.5134 16.2111C83.4398 16.2111 81.4029 18.6731 81.4029 23.5971V23.9558C81.4029 26.038 81.7168 28.0075 82.3446 29.8646C82.9864 31.7076 83.9001 33.4731 85.086 35.1614H78.0338C76.8898 33.7967 76.0179 32.1437 75.418 30.2022C74.832 28.2608 74.5391 26.1786 74.5391 23.9558V23.5971ZM92.9753 23.6393H99.7136V35.0559H92.9753V23.6393ZM104.757 16.2111C103.055 16.2111 101.785 16.6824 100.948 17.625C100.125 18.5676 99.7136 19.9674 99.7136 21.8244V26.3615L95.0888 26.1294V16.9919H96.4281C96.735 15.0505 97.6279 13.4467 99.1067 12.1805C100.585 10.9143 102.755 10.2812 105.615 10.2812C109.242 10.2812 111.976 11.1746 113.818 12.9613C115.66 14.748 116.58 17.4069 116.58 20.9381C116.58 21.4165 116.58 21.8455 116.58 22.2254C116.58 22.6052 116.58 22.9851 116.58 23.3649C116.58 23.7307 116.58 24.1528 116.58 24.6311C116.58 26.46 116.992 27.8317 117.815 28.7461C118.652 29.6465 119.915 30.0967 121.603 30.0967C123.346 30.0967 124.644 29.534 125.495 28.4085C126.36 27.283 126.792 25.5737 126.792 23.2805V22.8796C126.792 20.713 126.416 18.6731 125.662 16.7598C124.923 14.8465 123.835 13.0246 122.398 11.2942H129.241C130.692 12.687 131.787 14.4174 132.526 16.4855C133.28 18.5395 133.656 20.7271 133.656 23.0484V23.4494C133.656 31.806 129.645 35.9844 121.624 35.9844C117.717 35.9844 114.774 35.1121 112.793 33.3676C110.826 31.6091 109.842 29.0134 109.842 25.5807C109.842 25.0743 109.842 24.6311 109.842 24.2513C109.842 23.8573 109.842 23.4634 109.842 23.0695C109.842 22.6615 109.842 22.2254 109.842 21.7611C109.842 19.9463 109.416 18.5676 108.565 17.625C107.728 16.6824 106.459 16.2111 104.757 16.2111Z" fill="white"/>
<path d="M49.3596 25.9538C49.3596 24.4725 49.5503 23.0899 49.9319 21.8061C50.3134 20.5082 50.8363 19.2668 51.5005 18.0817C52.1646 16.8967 52.9065 15.7328 53.7261 14.5901C53.7827 14.4208 53.8886 14.1457 54.0441 13.7648C54.2137 13.3839 54.3762 13.01 54.5316 12.6432C54.6871 12.2623 54.786 11.9943 54.8284 11.8391C55.0969 11.2042 55.2947 10.5694 55.4219 9.93453C55.5632 9.28557 55.6338 8.61546 55.6338 7.92418C55.6338 6.96486 55.5208 6.04786 55.2947 5.17318C55.0686 4.2844 54.7224 3.41677 54.256 2.57031H60.3607C60.8412 3.30391 61.1945 4.11511 61.4206 5.00389C61.6467 5.89267 61.7597 6.852 61.7597 7.88186C61.7597 8.65778 61.6608 9.44076 61.463 10.2308C61.2793 11.0208 60.9896 11.8461 60.5939 12.7067C60.5656 12.8478 60.4667 13.137 60.2971 13.5743C60.1417 14.0116 59.9863 14.449 59.8308 14.8863C59.6754 15.3096 59.5694 15.5988 59.5129 15.7539C58.8628 16.8261 58.2834 17.9124 57.7747 19.0128C57.2801 20.1132 56.8915 21.2348 56.6089 22.3775C56.3404 23.5202 56.2062 24.6912 56.2062 25.8903V26.0808C56.2062 27.548 56.517 28.6554 57.1388 29.4031C57.7747 30.1508 58.7145 30.5247 59.958 30.5247C61.2722 30.5247 62.2402 30.1015 62.862 29.255C63.4979 28.4085 63.8158 27.1459 63.8158 25.4671V25.2343C63.8158 22.8924 63.3071 20.9879 62.2896 19.5207C61.2722 18.0394 59.8096 16.9954 57.9019 16.3888L56.3333 15.8386C55.8529 15.7681 55.3512 15.7116 54.8284 15.6693C54.3055 15.627 53.7544 15.6058 53.175 15.6058C49.8542 15.6058 47.3176 16.417 45.5653 18.0394C43.8131 19.6477 42.9369 22.0671 42.9369 25.2978V25.6575C42.9369 27.3364 43.1701 28.9517 43.6364 30.5035C44.1028 32.0554 44.8093 33.6143 45.7561 35.1802H38.6764C37.8426 33.9529 37.1855 32.4575 36.7051 30.694C36.2246 28.9305 35.9844 27.1247 35.9844 25.2766V24.9169C35.9844 20.1344 37.4258 16.4805 40.3085 13.9552C43.1913 11.4158 47.4448 10.1461 53.069 10.1461C53.5919 10.1461 54.1006 10.1532 54.5952 10.1673C55.1039 10.1814 55.5914 10.2167 56.0578 10.2731L58.7074 10.781C61.3499 11.2889 63.5615 12.1847 65.342 13.4685C67.1225 14.7523 68.4579 16.3747 69.3482 18.3357C70.2385 20.2825 70.6836 22.5186 70.6836 25.0439V25.4671C70.6836 28.867 69.7721 31.4699 67.9492 33.2757C66.1404 35.0815 63.4625 35.9844 59.9156 35.9844C56.4393 35.9844 53.8109 35.145 52.0304 33.4662C50.2498 31.7873 49.3596 29.3679 49.3596 26.2077V25.9538Z" fill="white"/>
<path d="M30.448 17.643V17.8113C30.448 19.3678 29.9343 20.5948 28.9069 21.4922C27.8795 22.3896 26.3106 22.9365 24.2002 23.1328V23.3011C26.4355 23.5675 28.1016 24.1915 29.1985 25.1731C30.2953 26.1406 30.8438 27.4237 30.8438 29.0222V29.2326C30.8438 31.4762 30.0038 33.1659 28.3238 34.3017C26.6438 35.4235 24.0821 35.9844 20.6389 35.9844C19.3199 35.9844 18.0981 35.9213 16.9734 35.7951C15.8488 35.6689 14.745 35.4445 13.6621 35.122L12.8498 29.8005C14.0578 30.109 15.1685 30.3193 16.182 30.4315C17.1956 30.5437 18.348 30.5998 19.6392 30.5998C21.1109 30.5998 22.2078 30.4034 22.9298 30.0108C23.6517 29.6182 24.0127 29.0433 24.0127 28.2861V28.1599C24.0127 27.4447 23.6864 26.9119 23.0339 26.5613C22.3813 26.2107 21.3331 26.0144 19.8891 25.9724L14.5576 25.8041V20.6298L19.9308 20.4826C21.2081 20.4545 22.1384 20.2792 22.7215 19.9567C23.3185 19.6342 23.617 19.1575 23.617 18.5264V18.4213C23.617 16.6825 21.2845 15.8131 16.6194 15.8131C13.2455 15.8131 10.7672 16.5493 9.1844 18.0216C7.6016 19.494 6.8102 21.7236 6.8102 24.7103V25.0469C6.8102 26.8417 6.99069 28.5665 7.35168 30.2212C7.71267 31.8758 8.23333 33.5515 8.91366 35.2482H2.12429C1.45785 33.9581 0.937186 32.4087 0.562312 30.5998C0.187439 28.7909 0 26.9329 0 25.0258V24.5631C0 19.7814 1.35371 16.2057 4.06113 13.8359C6.76855 11.4661 10.8991 10.2812 16.4528 10.2812C21.1179 10.2812 24.6167 10.8982 26.9492 12.1322C29.2818 13.3522 30.448 15.1891 30.448 17.643Z" fill="white"/>
<path d="M105 51C105 47.6863 107.686 45 111 45H140V52C140 55.3137 137.314 58 134 58H105V51Z" fill="#BC9A53"/>
</svg>
